#N canvas 227 154 672 629 10;
#X obj 320 291 bng 15 250 50 0 empty empty empty 17 7 0 10 -262144
-1 -1;
#X obj 238 477 *~;
#X msg 238 396 1;
#X obj 190 531 *~;
#X obj 223 531 *~;
#X obj 531 342 noise~;
#X obj 570 396 hip~;
#X obj 190 585 outlet~;
#X obj 223 558 outlet~;
#X obj 256 236 loadbang;
#X obj 20 7 inlet;
#X obj 359 7 inlet;
#X obj 85 7 inlet;
#X obj 130 396 abs;
#X obj 130 423 ==;
#X floatatom 137 85 5 0 0 0 - - -;
#X obj 591 369 * 5000;
#X obj 70 101 pow 2;
#X obj 85 155 pow 2;
#X obj 70 209 +;
#X obj 70 236 sqrt;
#X obj 80 183 bng 15 250 50 0 empty empty empty 17 7 0 10 -262144 -1
-1;
#X obj 20 155 atan2;
#X obj 30 101 t b f;
#X obj 20 128 f;
#X obj 30 74 abs;
#X obj 35 342 loadbang;
#X obj 20 396 /;
#X obj 20 477 sqrt;
#X msg 35 369 3.14159;
#X obj 20 450 + 0.5;
#X obj 59 477 sqrt;
#X obj 20 423 * 0.5;
#X obj 59 423 * -0.5;
#X obj 59 450 + 0.5;
#X msg 407 396 0;
#X msg 320 317 1;
#X obj 320 344 route 1;
#X msg 275 396 0;
#X obj 374 74 abs;
#X obj 359 101 /;
#X msg 338 396 1;
#X obj 292 263 metro;
#X obj 319 182 abs;
#X obj 319 236 + 150;
#X obj 407 369 delay 100;
#X obj 319 209 * 200;
#X obj 275 369 delay 25;
#X obj 338 369 delay 50;
#X obj 334 128 + 2;
#X obj 319 155 *;
#X obj 85 128 abs;
#X obj 70 74 abs;
#X obj 163 396 osc~ 1;
#X obj 130 450 *~;
#X obj 163 423 *~ 90;
#X obj 531 369 *~;
#X obj 561 7 inlet;
#X obj 561 34 * 0.05;
#X obj 404 123 expr $f1 && $f2 && $f3;
#X obj 407 74 expr (abs($f1)<=0.4) \; (abs($f2)<=0.4) \; (abs($f3)<=0.4)
;
#X obj 546 296 *;
#X obj 546 270 bng 15 250 50 0 empty empty empty 17 7 0 10 -262144
-1 -1;
#X obj 407 48 bng 15 250 50 0 empty empty empty 17 7 0 10 -262144 -1
-1;
#X connect 0 0 2 0;
#X connect 0 0 36 0;
#X connect 0 0 45 0;
#X connect 1 0 3 1;
#X connect 1 0 4 1;
#X connect 2 0 1 0;
#X connect 3 0 7 0;
#X connect 4 0 8 0;
#X connect 5 0 56 0;
#X connect 6 0 1 1;
#X connect 9 0 42 0;
#X connect 10 0 24 0;
#X connect 10 0 52 0;
#X connect 10 0 60 0;
#X connect 11 0 39 0;
#X connect 11 0 40 0;
#X connect 11 0 50 0;
#X connect 11 0 60 2;
#X connect 11 0 63 0;
#X connect 12 0 15 0;
#X connect 12 0 25 0;
#X connect 12 0 51 0;
#X connect 12 0 60 1;
#X connect 12 0 63 0;
#X connect 13 0 14 0;
#X connect 14 0 54 0;
#X connect 15 0 14 1;
#X connect 15 0 13 0;
#X connect 16 0 6 1;
#X connect 17 0 19 0;
#X connect 18 0 19 1;
#X connect 18 0 21 0;
#X connect 19 0 20 0;
#X connect 20 0 16 0;
#X connect 21 0 19 0;
#X connect 22 0 27 0;
#X connect 23 0 24 0;
#X connect 23 1 22 1;
#X connect 24 0 22 0;
#X connect 25 0 23 0;
#X connect 26 0 29 0;
#X connect 27 0 32 0;
#X connect 27 0 33 0;
#X connect 28 0 3 0;
#X connect 29 0 27 1;
#X connect 30 0 28 0;
#X connect 31 0 4 0;
#X connect 32 0 30 0;
#X connect 33 0 34 0;
#X connect 34 0 31 0;
#X connect 35 0 1 0;
#X connect 36 0 37 0;
#X connect 37 0 47 0;
#X connect 37 0 48 0;
#X connect 38 0 1 0;
#X connect 39 0 40 1;
#X connect 40 0 37 1;
#X connect 40 0 49 0;
#X connect 41 0 1 0;
#X connect 42 0 0 0;
#X connect 43 0 46 0;
#X connect 44 0 42 1;
#X connect 45 0 35 0;
#X connect 46 0 44 0;
#X connect 47 0 38 0;
#X connect 48 0 41 0;
#X connect 49 0 50 1;
#X connect 50 0 43 0;
#X connect 51 0 18 0;
#X connect 52 0 17 0;
#X connect 53 0 55 0;
#X connect 55 0 54 1;
#X connect 56 0 6 0;
#X connect 57 0 58 0;
#X connect 58 0 62 0;
#X connect 58 0 61 1;
#X connect 59 0 61 0;
#X connect 60 0 59 0;
#X connect 60 1 59 1;
#X connect 60 2 59 2;
#X connect 61 0 56 1;
#X connect 62 0 61 0;
#X connect 63 0 60 0;
