#N canvas 1 54 422 297 10;
#X obj 111 62 noise~;
#X obj 111 146 +~;
#X obj 111 118 *~ 2;
#X obj 182 118 *~ 0.3;
#X obj 111 90 lop~ 135;
#X obj 182 90 lop~ 3000;
#X obj 111 174 outlet~;
#X connect 0 0 4 0;
#X connect 0 0 5 0;
#X connect 1 0 6 0;
#X connect 2 0 1 0;
#X connect 3 0 1 1;
#X connect 4 0 2 0;
#X connect 5 0 3 0;
