#N canvas 953 0 958 988 10;
#X obj 51 48 unpackOSC;
#X obj 51 25 udpreceive 8001;
#X obj 191 139 unpack f f f;
#X obj 284 139 unpack f f f;
#X obj 51 166 == 0;
#X obj 216 192 -;
#X obj 216 166 bng 15 250 50 0 empty empty empty 17 7 0 10 -262144
-1 -1;
#X obj 277 192 -;
#X obj 277 166 bng 15 250 50 0 empty empty empty 17 7 0 10 -262144
-1 -1;
#X obj 338 192 -;
#X obj 338 166 bng 15 250 50 0 empty empty empty 17 7 0 10 -262144
-1 -1;
#X obj 144 193 == 0;
#X obj 216 219 / 2;
#X obj 277 219 / 2;
#X obj 338 219 / 2;
#X obj 82 193 bng 15 250 50 0 empty empty empty 17 7 0 10 -262144 -1
-1;
#X obj 82 219 *;
#X obj 379 139 unpack f f f;
#X obj 399 192 -;
#X obj 399 166 bng 15 250 50 0 empty empty empty 17 7 0 10 -262144
-1 -1;
#X obj 444 192 -;
#X obj 444 166 bng 15 250 50 0 empty empty empty 17 7 0 10 -262144
-1 -1;
#X obj 489 192 -;
#X obj 489 166 bng 15 250 50 0 empty empty empty 17 7 0 10 -262144
-1 -1;
#X obj 304 305 shepardGuide;
#X obj 555 162 == 0;
#X obj 51 71 routeOSC /soundMute /volume /pinkMute /target /position
/obstacle /obstacleMute;
#X obj 51 109 filter;
#X obj 97 109 filter;
#X obj 144 109 filter;
#X obj 191 109 filter;
#X obj 237 109 filter;
#X obj 284 108 filter;
#X obj 331 108 filter;
#X connect 0 0 26 0;
#X connect 1 0 0 0;
#X connect 2 0 5 1;
#X connect 2 0 6 0;
#X connect 2 1 7 1;
#X connect 2 1 8 0;
#X connect 2 2 9 1;
#X connect 2 2 10 0;
#X connect 3 0 18 0;
#X connect 3 0 5 0;
#X connect 3 1 20 0;
#X connect 3 1 7 0;
#X connect 3 2 22 0;
#X connect 3 2 9 0;
#X connect 4 0 16 0;
#X connect 5 0 12 0;
#X connect 6 0 5 0;
#X connect 7 0 13 0;
#X connect 8 0 7 0;
#X connect 9 0 14 0;
#X connect 10 0 9 0;
#X connect 11 0 24 1;
#X connect 12 0 24 2;
#X connect 13 0 24 3;
#X connect 14 0 24 4;
#X connect 15 0 16 0;
#X connect 16 0 24 0;
#X connect 17 0 18 1;
#X connect 17 0 19 0;
#X connect 17 1 20 1;
#X connect 17 1 21 0;
#X connect 17 2 22 1;
#X connect 17 2 23 0;
#X connect 18 0 24 5;
#X connect 19 0 18 0;
#X connect 20 0 24 6;
#X connect 21 0 20 0;
#X connect 22 0 24 7;
#X connect 23 0 22 0;
#X connect 25 0 24 8;
#X connect 26 0 27 0;
#X connect 26 1 28 0;
#X connect 26 2 29 0;
#X connect 26 3 30 0;
#X connect 26 4 31 0;
#X connect 26 5 32 0;
#X connect 26 6 33 0;
#X connect 27 0 4 0;
#X connect 28 0 16 1;
#X connect 28 0 15 0;
#X connect 29 0 11 0;
#X connect 30 0 2 0;
#X connect 31 0 3 0;
#X connect 32 0 17 0;
#X connect 33 0 25 0;
