#N canvas 110 251 1273 533 10;
#X obj 88 82 == 0;
#X obj 313 135 -;
#X obj 313 109 bng 15 250 50 0 empty empty empty 17 7 0 10 -262144
-1 -1;
#X obj 383 135 -;
#X obj 383 109 bng 15 250 50 0 empty empty empty 17 7 0 10 -262144
-1 -1;
#X obj 453 135 -;
#X obj 453 109 bng 15 250 50 0 empty empty empty 17 7 0 10 -262144
-1 -1;
#X obj 236 82 == 0;
#X obj 313 162 / 2;
#X obj 383 162 / 2;
#X obj 453 162 / 2;
#X obj 173 82 bng 15 250 50 0 empty empty empty 17 7 0 10 -262144 -1
-1;
#X obj 173 108 *;
#X obj 719 135 -;
#X obj 719 109 bng 15 250 50 0 empty empty empty 17 7 0 10 -262144
-1 -1;
#X obj 803 135 -;
#X obj 803 109 bng 15 250 50 0 empty empty empty 17 7 0 10 -262144
-1 -1;
#X obj 888 135 -;
#X obj 888 109 bng 15 250 50 0 empty empty empty 17 7 0 10 -262144
-1 -1;
#X obj 1094 28 netreceive 32000;
#X msg 1094 68 \; myAmp 0.5 \;;
#X obj 389 281 shepardGuide;
#X obj 988 135 == 0;
#X obj 173 28 r volume;
#X obj 313 28 r targetX;
#X obj 383 28 r targetY;
#X obj 453 28 r targetZ;
#X obj 594 28 r playerY;
#X obj 523 28 r playerX;
#X obj 664 28 r playerZ;
#X obj 734 28 r obstacleX;
#X obj 818 28 r obstacleY;
#X obj 903 28 r obstacleZ;
#X obj 88 28 r soundMute;
#X obj 236 28 r pinkMute;
#X obj 988 28 r obstacleMute;
#X obj 88 55 filter;
#X obj 173 55 filter;
#X obj 236 55 filter;
#X obj 313 55 filter;
#X obj 383 55 filter;
#X obj 453 55 filter;
#X obj 523 55 filter;
#X obj 594 55 filter;
#X obj 664 55 filter;
#X obj 734 55 filter;
#X obj 818 55 filter;
#X obj 903 55 filter;
#X obj 988 55 filter;
#X connect 0 0 12 0;
#X connect 1 0 8 0;
#X connect 2 0 1 0;
#X connect 3 0 9 0;
#X connect 4 0 3 0;
#X connect 5 0 10 0;
#X connect 6 0 5 0;
#X connect 7 0 21 1;
#X connect 8 0 21 2;
#X connect 9 0 21 3;
#X connect 10 0 21 4;
#X connect 11 0 12 0;
#X connect 12 0 21 0;
#X connect 13 0 21 5;
#X connect 14 0 13 0;
#X connect 15 0 21 6;
#X connect 16 0 15 0;
#X connect 17 0 21 7;
#X connect 18 0 17 0;
#X connect 19 0 20 0;
#X connect 22 0 21 8;
#X connect 23 0 37 0;
#X connect 24 0 39 0;
#X connect 25 0 40 0;
#X connect 26 0 41 0;
#X connect 27 0 43 0;
#X connect 28 0 42 0;
#X connect 29 0 44 0;
#X connect 30 0 45 0;
#X connect 31 0 46 0;
#X connect 32 0 47 0;
#X connect 33 0 36 0;
#X connect 34 0 38 0;
#X connect 35 0 48 0;
#X connect 36 0 0 0;
#X connect 37 0 12 1;
#X connect 37 0 11 0;
#X connect 38 0 7 0;
#X connect 39 0 1 1;
#X connect 39 0 2 0;
#X connect 40 0 3 1;
#X connect 40 0 4 0;
#X connect 41 0 5 1;
#X connect 41 0 6 0;
#X connect 42 0 13 0;
#X connect 42 0 1 0;
#X connect 43 0 15 0;
#X connect 43 0 3 0;
#X connect 44 0 5 0;
#X connect 44 0 17 0;
#X connect 45 0 13 1;
#X connect 45 0 14 0;
#X connect 46 0 15 1;
#X connect 46 0 16 0;
#X connect 47 0 17 1;
#X connect 47 0 18 0;
#X connect 48 0 22 0;
