#N canvas 93 63 640 585 10;
#X obj 44 248 == 0;
#X obj 268 301 -;
#X obj 268 275 bng 15 250 50 0 empty empty empty 17 7 0 10 -262144
-1 -1;
#X obj 338 301 -;
#X obj 338 275 bng 15 250 50 0 empty empty empty 17 7 0 10 -262144
-1 -1;
#X obj 408 301 -;
#X obj 408 275 bng 15 250 50 0 empty empty empty 17 7 0 10 -262144
-1 -1;
#X obj 191 248 == 0;
#X obj 268 328 / 2;
#X obj 338 328 / 2;
#X obj 408 328 / 2;
#X obj 128 248 bng 15 250 50 0 empty empty empty 17 7 0 10 -262144
-1 -1;
#X obj 128 274 *;
#X obj 674 301 -;
#X obj 674 275 bng 15 250 50 0 empty empty empty 17 7 0 10 -262144
-1 -1;
#X obj 758 301 -;
#X obj 758 275 bng 15 250 50 0 empty empty empty 17 7 0 10 -262144
-1 -1;
#X obj 843 301 -;
#X obj 843 275 bng 15 250 50 0 empty empty empty 17 7 0 10 -262144
-1 -1;
#X obj 294 438 shepardGuide;
#X obj 943 301 == 0;
#X obj 128 194 r volume;
#X obj 268 194 r targetX;
#X obj 338 194 r targetY;
#X obj 408 194 r targetZ;
#X obj 549 194 r playerY;
#X obj 478 194 r playerX;
#X obj 619 194 r playerZ;
#X obj 689 194 r obstacleX;
#X obj 773 194 r obstacleY;
#X obj 858 194 r obstacleZ;
#X obj 44 194 r soundMute;
#X obj 191 194 r pinkMute;
#X obj 943 194 r obstacleMute;
#X obj 44 221 filter;
#X obj 128 221 filter;
#X obj 191 221 filter;
#X obj 268 221 filter;
#X obj 338 221 filter;
#X obj 408 221 filter;
#X obj 478 221 filter;
#X obj 549 221 filter;
#X obj 619 221 filter;
#X obj 689 221 filter;
#X obj 773 221 filter;
#X obj 858 221 filter;
#X obj 943 221 filter;
#X obj 130 159 s volume;
#X obj 270 150 s targetX;
#X obj 48 164 s soundMute;
#X obj 191 166 s pinkMute;
#X floatatom 134 83 5 0 0 0 - - -;
#X floatatom 272 62 5 0 0 0 - - -;
#X obj 43 75 tgl 15 1 empty empty empty 17 7 0 10 -262144 -1 -1 1 1
;
#X obj 193 68 tgl 15 0 empty empty empty 17 7 0 10 -262144 -1 -1 0
1;
#X floatatom 347 80 5 0 0.09 0 - - -;
#X obj 352 137 s targetY;
#X floatatom 694 76 5 0 0 0 - - -;
#X obj 692 159 s obstacleX;
#X obj 329 27 hsl 128 15 0 90 0 0 empty empty empty -2 -8 0 10 -204786
-1 -1 1600 1;
#X floatatom 484 101 5 0 0 0 - - -;
#X obj 488 159 s playerX;
#X floatatom 413 91 5 0 0.09 0 - - -;
#X obj 418 150 s targetZ;
#X connect 0 0 12 0;
#X connect 1 0 8 0;
#X connect 2 0 1 0;
#X connect 3 0 9 0;
#X connect 4 0 3 0;
#X connect 5 0 10 0;
#X connect 6 0 5 0;
#X connect 7 0 19 1;
#X connect 8 0 19 2;
#X connect 9 0 19 3;
#X connect 10 0 19 4;
#X connect 11 0 12 0;
#X connect 12 0 19 0;
#X connect 13 0 19 5;
#X connect 14 0 13 0;
#X connect 15 0 19 6;
#X connect 16 0 15 0;
#X connect 17 0 19 7;
#X connect 18 0 17 0;
#X connect 20 0 19 8;
#X connect 21 0 35 0;
#X connect 22 0 37 0;
#X connect 23 0 38 0;
#X connect 24 0 39 0;
#X connect 25 0 41 0;
#X connect 26 0 40 0;
#X connect 27 0 42 0;
#X connect 28 0 43 0;
#X connect 29 0 44 0;
#X connect 30 0 45 0;
#X connect 31 0 34 0;
#X connect 32 0 36 0;
#X connect 33 0 46 0;
#X connect 34 0 0 0;
#X connect 35 0 12 1;
#X connect 35 0 11 0;
#X connect 36 0 7 0;
#X connect 37 0 1 1;
#X connect 37 0 2 0;
#X connect 38 0 3 1;
#X connect 38 0 4 0;
#X connect 39 0 5 1;
#X connect 39 0 6 0;
#X connect 40 0 13 0;
#X connect 40 0 1 0;
#X connect 41 0 15 0;
#X connect 41 0 3 0;
#X connect 42 0 5 0;
#X connect 42 0 17 0;
#X connect 43 0 13 1;
#X connect 43 0 14 0;
#X connect 44 0 15 1;
#X connect 44 0 16 0;
#X connect 45 0 17 1;
#X connect 45 0 18 0;
#X connect 46 0 20 0;
#X connect 51 0 47 0;
#X connect 53 0 49 0;
#X connect 54 0 50 0;
#X connect 55 0 56 0;
#X connect 57 0 58 0;
#X connect 59 0 48 0;
#X connect 60 0 61 0;
#X connect 62 0 63 0;
