#N canvas 164 168 1114 585 10;
#X obj 213 265 == 0;
#X obj 437 318 -;
#X obj 437 292 bng 15 250 50 0 empty empty empty 17 7 0 10 -262144
-1 -1;
#X obj 507 318 -;
#X obj 507 289 bng 15 250 50 0 empty empty empty 17 7 0 10 -262144
-1 -1;
#X obj 360 265 == 0;
#X obj 437 345 / 2;
#X obj 507 345 / 2;
#X obj 297 265 bng 15 250 50 0 empty empty empty 17 7 0 10 -262144
-1 -1;
#X obj 297 291 *;
#X obj 416 378 shepardGuide;
#X obj 297 211 r volume;
#X obj 437 211 r targetX;
#X obj 507 211 r targetY;
#X obj 213 211 r soundMute;
#X obj 360 211 r pinkMute;
#X obj 213 238 filter;
#X obj 297 238 filter;
#X obj 360 238 filter;
#X obj 437 238 filter;
#X obj 507 238 filter;
#X obj 298 168 s volume;
#X obj 438 159 s targetX;
#X obj 216 173 s soundMute;
#X obj 359 175 s pinkMute;
#X floatatom 298 146 5 0 0 0 - - -;
#X floatatom 438 116 5 0 0 0 - - -;
#X obj 211 84 tgl 15 1 empty empty empty 17 7 0 10 -262144 -1 -1 1
1;
#X obj 361 77 tgl 15 0 empty empty empty 17 7 0 10 -262144 -1 -1 0
1;
#X floatatom 520 127 5 0 0.09 0 - - -;
#X obj 520 146 s targetY;
#X obj 396 86 hsl 128 15 -1 1 0 0 empty empty x -2 -8 0 10 -204786
-1 -1 0 1;
#X obj 274 15 vsl 15 128 0 1 0 0 empty empty volume 0 -9 0 10 -262144
-1 -1 0 1;
#X obj 584 14 vsl 15 128 -1 1 0 0 empty empty y 0 -9 0 10 -204800 -1
-1 0 1;
#X msg 537 301 0;
#X msg 463 303 0;
#X connect 0 0 9 0;
#X connect 1 0 6 0;
#X connect 2 0 35 0;
#X connect 3 0 7 0;
#X connect 4 0 34 0;
#X connect 5 0 10 1;
#X connect 6 0 10 2;
#X connect 7 0 10 3;
#X connect 8 0 9 0;
#X connect 9 0 10 0;
#X connect 11 0 17 0;
#X connect 12 0 19 0;
#X connect 13 0 20 0;
#X connect 14 0 16 0;
#X connect 15 0 18 0;
#X connect 16 0 0 0;
#X connect 17 0 9 1;
#X connect 17 0 8 0;
#X connect 18 0 5 0;
#X connect 19 0 1 1;
#X connect 19 0 2 0;
#X connect 20 0 3 1;
#X connect 20 0 4 0;
#X connect 25 0 21 0;
#X connect 26 0 22 0;
#X connect 27 0 23 0;
#X connect 28 0 24 0;
#X connect 29 0 30 0;
#X connect 31 0 26 0;
#X connect 32 0 25 0;
#X connect 33 0 29 0;
#X connect 34 0 3 0;
#X connect 35 0 1 0;
