#N canvas 211 58 1280 755 10;
#X obj 178 409 cnv 15 180 260 empty empty empty 20 12 0 14 -233017
-66577 0;
#X obj 393 287 cnv 15 220 210 empty empty empty 20 12 0 14 -233017
-66577 0;
#X obj 634 287 cnv 15 160 340 empty empty empty 20 12 0 14 -233017
-66577 0;
#X obj 513 325 bng 15 250 50 0 empty empty empty 17 7 0 10 -262144
-1 -1;
#X obj 472 680 *~;
#X obj 677 452 osc~;
#X floatatom 677 319 5 -2 3.12 0 - - -;
#X obj 677 397 *;
#X obj 698 574 +~;
#X obj 734 454 == 0;
#X floatatom 734 492 5 0 0 0 - - -;
#X obj 677 479 -~ 2;
#X obj 678 506 /~ 2;
#X obj 734 353 < 0;
#X obj 677 533 *~;
#X obj 513 298 loadbang;
#X obj 677 292 * 2;
#X text 866 65 Anleitung: Du hast dich im zweidimensionalen Raum verirrt.
Der Ton führt dich nach Hause. Das Ziel ist ein harmonischer Ton mit
statischer Frequenz und Lautstärke. Geht der Ton hoch \, musst du
nach RECHTS \, geht er runter \, musst du nach LINKS. Je schneller
er steigt oder fällt \, desto weiter musst du in diese Richtung. Schwankt
die Lautstärke des Tons \, musst du nach OBEN \, bis es knackt. Ist
der Ton geräuschhaft und rauh \, musst du nach UNTEN bis es knackt.
Das Ziel ist ein harmonischer Ton mit statischer Frequenz und Lautstärke.
;
#X obj 198 649 *~;
#X floatatom 213 517 5 0 0 0 - - -;
#X obj 246 415 bng 15 250 50 0 empty empty empty 17 7 0 10 -262144
-1 -1;
#X floatatom 276 167 5 0 0 0 - - -;
#X floatatom 213 114 5 0 0 0 - - -;
#X text 238 652 Pink Noise;
#X obj 1115 201 cnv 15 120 140 empty empty empty 20 12 0 14 -233017
-66577 0;
#X obj 1146 266 bng 15 250 50 0 empty empty empty 17 7 0 10 -262144
-1 -1;
#X obj 1146 239 loadbang;
#X text 738 290 Beating;
#X text 417 475 Frequency Sweeping & Roughness;
#X msg 520 405 2;
#X msg 499 351 1;
#X msg 1146 292 \; pd dsp 1;
#X text 1151 208 Toggle DSP;
#X floatatom 238 176 5 0 0 0 - - -;
#X obj 465 242 muSig;
#X obj 198 543 bng 15 250 50 0 empty empty empty 17 7 0 10 -262144
-1 -1;
#X obj 216 42 inlet;
#X obj 246 69 inlet;
#X obj 276 96 inlet;
#X obj 156 42 inlet;
#X obj 186 69 inlet;
#X obj 306 42 inlet;
#X obj 471 459 shepardTone;
#X obj 442 626 beep;
#X floatatom 810 203 5 0 0 0 - - -;
#X floatatom 156 681 5 0 0 0 - - -;
#X obj 213 490 expr $f1 && $f2 && $f3;
#X obj 216 441 expr (abs($f1)<=0.1) \; (abs($f2)<=0.1) \; (abs($f3)<=0.1)
;
#X obj 198 595 *;
#X floatatom 186 569 3 0 0 0 - - -;
#X obj 396 42 inlet;
#X floatatom 843 203 5 0 0 0 - - -;
#X obj 198 622 * 0.2;
#X obj 93 42 loadbang;
#X msg 93 69 0;
#X obj 243 622 pink;
#X obj 336 69 inlet;
#X obj 366 96 inlet;
#X floatatom 821 229 5 0 0 0 - - -;
#X floatatom 832 255 5 0 0 0 - - -;
#X msg 506 378 25;
#X obj 677 425 * 5;
#X msg 527 432 9;
#X obj 447 203 * -0.2;
#X obj 424 784 *~;
#X obj 424 838 dac~;
#X obj 457 784 *~;
#X obj 810 641 blueOI;
#X obj 425 811 /~ 2.67;
#X obj 482 811 /~ 2.67;
#X text 149 17 sound;
#X text 188 14 pink;
#X text 221 16 tarX;
#X text 251 47 tarY;
#X text 285 81 tarZ;
#X connect 3 0 60 0;
#X connect 3 0 29 0;
#X connect 3 0 30 0;
#X connect 3 0 62 0;
#X connect 3 0 42 6;
#X connect 4 0 64 1;
#X connect 4 0 66 1;
#X connect 5 0 11 0;
#X connect 6 0 7 0;
#X connect 6 0 13 0;
#X connect 7 0 61 0;
#X connect 8 0 4 1;
#X connect 9 0 10 0;
#X connect 10 0 8 1;
#X connect 11 0 12 0;
#X connect 12 0 14 0;
#X connect 13 0 7 1;
#X connect 13 0 9 0;
#X connect 13 0 14 1;
#X connect 14 0 8 0;
#X connect 15 0 3 0;
#X connect 16 0 6 0;
#X connect 18 0 66 1;
#X connect 18 0 64 1;
#X connect 19 0 48 1;
#X connect 19 0 35 0;
#X connect 20 0 47 0;
#X connect 21 0 20 0;
#X connect 21 0 34 0;
#X connect 21 0 47 2;
#X connect 21 0 43 0;
#X connect 22 0 47 0;
#X connect 22 0 63 0;
#X connect 25 0 31 0;
#X connect 26 0 25 0;
#X connect 29 0 42 7;
#X connect 30 0 42 4;
#X connect 33 0 16 0;
#X connect 33 0 20 0;
#X connect 33 0 47 1;
#X connect 33 0 42 0;
#X connect 34 0 42 2;
#X connect 34 1 42 3;
#X connect 35 0 48 0;
#X connect 36 0 22 0;
#X connect 37 0 33 0;
#X connect 38 0 21 0;
#X connect 39 0 45 0;
#X connect 40 0 49 0;
#X connect 41 0 44 0;
#X connect 42 0 4 0;
#X connect 43 0 4 0;
#X connect 44 0 67 0;
#X connect 45 0 64 0;
#X connect 45 0 66 0;
#X connect 46 0 19 0;
#X connect 47 0 46 0;
#X connect 47 1 46 1;
#X connect 47 2 46 2;
#X connect 48 0 52 0;
#X connect 49 0 48 0;
#X connect 50 0 51 0;
#X connect 51 0 67 3;
#X connect 52 0 18 0;
#X connect 53 0 54 0;
#X connect 54 0 22 0;
#X connect 54 0 33 0;
#X connect 54 0 21 0;
#X connect 55 0 18 1;
#X connect 56 0 58 0;
#X connect 57 0 59 0;
#X connect 58 0 67 1;
#X connect 59 0 67 2;
#X connect 60 0 42 5;
#X connect 61 0 5 0;
#X connect 62 0 42 8;
#X connect 63 0 42 1;
#X connect 64 0 68 0;
#X connect 66 0 69 0;
#X connect 67 0 64 1;
#X connect 67 1 66 1;
#X connect 68 0 65 0;
#X connect 69 0 65 1;
