#N canvas 283 39 1452 889 10;
#X floatatom 213 114 5 0 0 0 - - - 0;
#X obj 521 33 cnv 15 120 140 empty empty empty 20 12 0 14 #e0e0e0 #404040
0;
#X obj 552 98 bng 15 250 50 0 empty empty empty 17 7 0 10 #fcfcfc #000000
#000000;
#X obj 552 71 loadbang;
#X msg 552 124 \; pd dsp 1;
#X text 557 40 Toggle DSP;
#X obj 216 42 inlet;
#X obj 249 62 inlet;
#X obj 276 96 inlet;
#X obj 156 42 inlet;
#X obj 186 69 inlet;
#X obj 306 42 inlet;
#X obj 396 42 inlet;
#X obj 93 42 loadbang;
#X msg 93 69 0;
#X obj 336 69 inlet;
#X obj 366 96 inlet;
#X text 149 17 sound;
#X text 188 14 pink;
#X text 221 16 tarX;
#X text 251 47 tarY;
#X text 285 81 tarZ;
#X msg 754 416 open guit.wav;
#X msg 724 466 start;
#X msg 635 417 stop;
#X obj 753 438 readsf~ 1;
#X obj 801 620 dac~;
#X obj 843 493 bng 15 250 50 0 empty empty empty 17 7 0 10 #fcfcfc
#000000 #000000;
#X msg 871 397 stop;
#X obj 895 441 readsf~ 1;
#X msg 895 422 open piano.wav;
#X msg 1002 403 stop;
#X obj 1026 447 readsf~ 1;
#X msg 1026 427 open drums.wav;
#X msg 1132 402 stop;
#X obj 1156 446 readsf~ 1;
#X floatatom 283 530 5 0 0 0 - - - 0;
#X floatatom 370 678 5 0 0 0 - - - 0;
#X obj 336 579 expr if($f1>=-.2 && $f1<-.1 \, 10*(0.2+$f1) \, if($f1>=-0.1
&& $f1<=0.1 \, 1 \, if($f1>.1 \, 1-($f1-.1)*2.5 \, 0)));
#X obj 505 649 *~ 0.1;
#X obj 744 553 *~;
#X obj 675 668 expr if($f1<=.2 && $f1>.1 \, 10*($f1-.2) \, if($f1>=-0.1
&& $f1<=0.1 \, 1 \, if($f1<-.1 \, ($f1+.5)*2.5 \, 0)));
#X obj 1030 758 *~ 0.1;
#X obj 998 528 *~;
#X obj 739 211 expr if($f1>=-.2 && $f1<-.1 \, 10*(0.2+$f1) \, if($f1>=-0.1
&& $f1<=0.1 \, 1 \, if($f1>.1 \, 1-($f1-.1)*2.5 \, 0)));
#X msg 814 307 open saw.wav;
#X msg 1156 426 open keys.wav;
#X obj 894 534 *~;
#X obj 1058 275 expr if($f1<=.2 && $f1>.1 \, 10*($f1-.2) \, if($f1>=-0.1
&& $f1<=0.1 \, 1 \, if($f1<-.1 \, ($f1+.5)*2.5 \, 0)));
#X obj 1127 527 *~;
#X obj 858 624 *~;
#X obj 815 331 readsf~ 1;
#X obj 582 300 *~ 0.1;
#X obj 608 349 *~;
#X obj 1101 327 *~ 0.12;
#X obj 962 287 *~ 0.14;
#X connect 2 0 4 0;
#X connect 2 0 27 0;
#X connect 3 0 2 0;
#X connect 6 0 0 0;
#X connect 6 0 38 0;
#X connect 6 0 41 0;
#X connect 7 0 44 0;
#X connect 7 0 48 0;
#X connect 9 0 50 1;
#X connect 10 0 52 0;
#X connect 13 0 14 0;
#X connect 14 0 0 0;
#X connect 22 0 25 0;
#X connect 23 0 25 0;
#X connect 23 0 29 0;
#X connect 23 0 32 0;
#X connect 23 0 35 0;
#X connect 23 0 51 0;
#X connect 24 0 25 0;
#X connect 25 0 40 0;
#X connect 25 1 27 0;
#X connect 27 0 22 0;
#X connect 27 0 30 0;
#X connect 27 0 33 0;
#X connect 27 0 46 0;
#X connect 27 0 45 0;
#X connect 27 0 23 0;
#X connect 28 0 29 0;
#X connect 29 0 47 0;
#X connect 30 0 29 0;
#X connect 31 0 32 0;
#X connect 32 0 43 0;
#X connect 33 0 32 0;
#X connect 34 0 35 0;
#X connect 35 0 49 0;
#X connect 36 0 38 0;
#X connect 38 0 37 0;
#X connect 38 0 39 0;
#X connect 39 0 40 1;
#X connect 40 0 50 0;
#X connect 41 0 42 0;
#X connect 42 0 43 1;
#X connect 43 0 50 0;
#X connect 44 0 55 0;
#X connect 45 0 51 0;
#X connect 46 0 35 0;
#X connect 47 0 50 0;
#X connect 48 0 54 0;
#X connect 49 0 50 0;
#X connect 50 0 26 0;
#X connect 50 0 26 1;
#X connect 51 0 53 1;
#X connect 52 0 53 0;
#X connect 53 0 50 0;
#X connect 54 0 49 1;
#X connect 55 0 47 1;
