#N canvas 530 49 429 423 10;
#X msg 145 240 1;
#X msg 190 239 0;
#X obj 145 268 * 540;
#X obj 145 185 route 1;
#X obj 145 158 !=;
#X obj 145 131 < 0;
#X obj 181 131 < 0;
#X obj 190 349 outlet~;
#X obj 145 104 inlet;
#X obj 190 212 delay 50;
#X obj 253 268 * 908.2;
#X obj 190 268 * 1441.6;
#X obj 190 322 *~ 0.2;
#X obj 104 296 osc~;
#X obj 190 295 osc~;
#X obj 280 295 osc~;
#X connect 0 0 2 0;
#X connect 0 0 10 0;
#X connect 0 0 11 0;
#X connect 1 0 2 0;
#X connect 1 0 10 0;
#X connect 1 0 11 0;
#X connect 2 0 13 0;
#X connect 3 0 0 0;
#X connect 3 0 9 0;
#X connect 4 0 3 0;
#X connect 5 0 4 0;
#X connect 6 0 4 1;
#X connect 8 0 5 0;
#X connect 8 0 6 0;
#X connect 9 0 1 0;
#X connect 10 0 15 0;
#X connect 11 0 14 0;
#X connect 12 0 7 0;
#X connect 13 0 12 0;
#X connect 14 0 12 0;
#X connect 15 0 12 0;
