#N canvas 1 54 795 803 10;
#X obj 113 366 noise~;
#X obj 113 394 hip~ 5000;
#X obj 191 310 metro 100;
#X obj 191 338 bng 15 250 50 0 empty empty empty 17 7 0 10 -262144
-1 -1;
#X obj 224 366 delay;
#X msg 191 394 1, f 2;
#X obj 269 338 *;
#X obj 269 310 < 0.49;
#X obj 113 422 *~;
#X obj 113 450 *~ 0.05;
#X msg 224 394 0, f 2;
#X obj 326 228 inlet;
#X obj 326 310 + 90;
#X obj 326 282 * -180;
#X obj 191 282 loadbang;
#X obj 113 478 outlet~;
#X obj 326 255 + 0.05;
#X connect 0 0 1 0;
#X connect 1 0 8 0;
#X connect 2 0 3 0;
#X connect 3 0 4 0;
#X connect 3 0 5 0;
#X connect 4 0 10 0;
#X connect 5 0 8 1;
#X connect 6 0 4 1;
#X connect 7 0 6 0;
#X connect 8 0 9 0;
#X connect 9 0 15 0;
#X connect 10 0 8 1;
#X connect 11 0 16 0;
#X connect 12 0 6 1;
#X connect 13 0 12 0;
#X connect 14 0 2 0;
#X connect 16 0 13 0;
#X connect 16 0 7 0;
