#N canvas 112 179 450 300 12;
#X obj 106 232 dac~;
#X floatatom 49 12 5 0 0 0 - - -;
#X obj 100 197 *~ 0.1;
#X obj 52 51 s input_freq;
#X obj 92 92 r input_freq;
#N canvas 579 174 450 300 subdynamic 1;
#X obj 95 157 osc~ 440;
#X obj 95 121 *~ 10;
#X obj 91 77 inlet;
#X obj 99 217 outlet~;
#X connect 0 0 3 0;
#X connect 1 0 0 0;
#X connect 2 0 1 0;
#X restore 92 140 pd subdynamic;
#X connect 1 0 3 0;
#X connect 2 0 0 0;
#X connect 2 0 0 1;
#X connect 4 0 5 0;
#X connect 5 0 2 0;
