#N canvas 1417 314 450 438 10;
#X obj 86 194 !=;
#X obj 86 221 route 1;
#X obj 86 248 bng 15 250 50 0 empty empty empty 17 7 0 10 -262144 -1
-1;
#X obj 86 274 f;
#X obj 86 167 inlet;
#X obj 86 301 outlet;
#X connect 0 0 1 0;
#X connect 1 0 2 0;
#X connect 2 0 3 0;
#X connect 3 0 5 0;
#X connect 4 0 3 1;
#X connect 4 0 0 0;
#X connect 4 0 0 1;
