#N canvas 895 160 704 482 10;
#X obj 277 212 /~;
#X obj 277 131 -~;
#X text 370 88 sigma;
#X text 337 90 mu;
#X obj 256 266 pow~;
#X msg 216 239 2.71828;
#X obj 357 52 loadbang;
#X msg 418 104 3.14159;
#X obj 277 104 inlet~;
#X obj 256 320 outlet~;
#X obj 373 104 inlet;
#X obj 328 104 inlet;
#X obj 277 239 *~ -1;
#X obj 373 239 *~ 1;
#X obj 277 185 pow~ 2;
#X obj 373 158 pow 2;
#X obj 418 158 * 2;
#X obj 373 185 *;
#X obj 328 185 * 2;
#X obj 256 293 /~;
#X obj 373 212 pow~ 0.5;
#X obj 373 131 abs;
#X obj 277 158 abs~;
#X connect 0 0 12 0;
#X connect 1 0 22 0;
#X connect 4 0 19 0;
#X connect 5 0 4 0;
#X connect 6 0 7 0;
#X connect 6 0 5 0;
#X connect 7 0 16 0;
#X connect 8 0 1 0;
#X connect 10 0 21 0;
#X connect 11 0 1 1;
#X connect 12 0 4 1;
#X connect 13 0 19 1;
#X connect 14 0 0 0;
#X connect 15 0 17 0;
#X connect 15 0 18 0;
#X connect 16 0 17 1;
#X connect 17 0 20 0;
#X connect 18 0 0 1;
#X connect 19 0 9 0;
#X connect 20 0 13 0;
#X connect 21 0 15 0;
#X connect 22 0 14 0;
