#N canvas 501 389 371 343 10;
#X obj 74 56 inlet;
#X obj 74 110 *;
#X obj 74 217 outlet;
#X floatatom 74 191 5 0 0 0 - - -;
#X obj 74 164 + 0.65;
#X obj 89 83 < 0;
#X obj 74 137 / 4.1;
#X connect 0 0 5 0;
#X connect 0 0 1 0;
#X connect 1 0 6 0;
#X connect 3 0 2 0;
#X connect 4 0 3 0;
#X connect 5 0 1 1;
#X connect 6 0 4 0;
