#N canvas 1 54 799 818 10;
#X floatatom 310 257 5 0 0 0 - - -;
#X floatatom 257 257 5 0 0 0 - - -;
#X floatatom 479 257 5 0 0 0 - - -;
#X floatatom 426 257 5 0 0 0 - - -;
#X floatatom 363 257 5 0 0 0 - - -;
#X floatatom 532 257 5 0 0 0 - - -;
#X text 281 274 Player: x y z;
#X text 449 275 Target: x y z;
#X floatatom 155 257 5 0 0 0 - - -;
#X obj 310 115 vsl 15 128 0 1 0 0 empty empty empty 0 -9 0 10 -262144
-1 -1 6350 1;
#X obj 257 115 vsl 15 128 0 1 0 0 empty empty empty 0 -9 0 10 -262144
-1 -1 6350 1;
#X obj 363 114 vsl 15 128 0 1 0 0 empty empty empty 0 -9 0 10 -262144
-1 -1 6350 1;
#X obj 426 115 vsl 15 128 0 1 0 0 empty empty empty 0 -9 0 10 -262144
-1 -1 6350 1;
#X obj 479 115 vsl 15 128 0 1 0 0 empty empty empty 0 -9 0 10 -262144
-1 -1 6350 1;
#X obj 532 115 vsl 15 128 0 1 0 0 empty empty empty 0 -9 0 10 -262144
-1 -1 6350 1;
#X obj 109 230 == 0;
#X obj 155 115 vsl 15 128 0 1 0 0 empty empty empty 0 -9 0 10 -262144
-1 -1 12700 1;
#X obj 155 29 loadbang;
#X msg 363 56 0.5;
#X obj 339 342 -;
#X obj 339 316 bng 15 250 50 0 empty empty empty 17 7 0 10 -262144
-1 -1;
#X obj 400 342 -;
#X obj 400 316 bng 15 250 50 0 empty empty empty 17 7 0 10 -262144
-1 -1;
#X obj 461 342 -;
#X obj 461 316 bng 15 250 50 0 empty empty empty 17 7 0 10 -262144
-1 -1;
#X obj 218 230 == 0;
#X obj 218 257 tgl 15 0 empty empty empty 17 7 0 10 -262144 -1 -1 0
1;
#X obj 109 257 tgl 15 0 empty empty empty 17 7 0 10 -262144 -1 -1 1
1;
#X obj 339 369 / 2;
#X obj 400 369 / 2;
#X obj 461 369 / 2;
#X msg 155 56 1;
#X obj 140 301 bng 15 250 50 0 empty empty empty 17 7 0 10 -262144
-1 -1;
#X obj 140 327 *;
#X obj 582 342 -;
#X obj 582 316 bng 15 250 50 0 empty empty empty 17 7 0 10 -262144
-1 -1;
#X obj 627 342 -;
#X obj 627 316 bng 15 250 50 0 empty empty empty 17 7 0 10 -262144
-1 -1;
#X obj 672 342 -;
#X obj 672 316 bng 15 250 50 0 empty empty empty 17 7 0 10 -262144
-1 -1;
#X floatatom 648 257 5 0 0 0 - - -;
#X floatatom 595 257 5 0 0 0 - - -;
#X floatatom 701 257 5 0 0 0 - - -;
#X obj 595 115 vsl 15 128 0 1 0 0 empty empty empty 0 -9 0 10 -262144
-1 -1 6500 1;
#X obj 648 115 vsl 15 128 0 1 0 0 empty empty empty 0 -9 0 10 -262144
-1 -1 6000 1;
#X obj 701 115 vsl 15 128 0 1 0 0 empty empty empty 0 -9 0 10 -262144
-1 -1 5700 1;
#X text 618 275 Obstacle: x y z;
#X obj 331 489 shepardGuide;
#X msg 595 56 -1;
#X obj 759 256 tgl 15 0 empty empty empty 17 7 0 10 -262144 -1 -1 1
1;
#X msg 759 56 0;
#X obj 759 84 == 0;
#X floatatom 759 336 5 0 0 0 - - -;
#X msg 221 88 0.5;
#X connect 0 0 21 0;
#X connect 0 0 36 0;
#X connect 1 0 19 0;
#X connect 1 0 34 0;
#X connect 2 0 21 1;
#X connect 2 0 22 0;
#X connect 3 0 19 1;
#X connect 3 0 20 0;
#X connect 4 0 23 0;
#X connect 4 0 38 0;
#X connect 5 0 23 1;
#X connect 5 0 24 0;
#X connect 8 0 33 1;
#X connect 8 0 32 0;
#X connect 9 0 0 0;
#X connect 10 0 1 0;
#X connect 11 0 4 0;
#X connect 12 0 3 0;
#X connect 13 0 2 0;
#X connect 14 0 5 0;
#X connect 15 0 27 0;
#X connect 16 0 8 0;
#X connect 17 0 31 0;
#X connect 17 0 18 0;
#X connect 17 0 48 0;
#X connect 17 0 50 0;
#X connect 18 0 10 0;
#X connect 18 0 9 0;
#X connect 18 0 11 0;
#X connect 18 0 12 0;
#X connect 18 0 13 0;
#X connect 18 0 14 0;
#X connect 19 0 28 0;
#X connect 20 0 19 0;
#X connect 21 0 29 0;
#X connect 22 0 21 0;
#X connect 23 0 30 0;
#X connect 24 0 23 0;
#X connect 25 0 26 0;
#X connect 26 0 47 1;
#X connect 27 0 33 0;
#X connect 28 0 47 2;
#X connect 29 0 47 3;
#X connect 30 0 47 4;
#X connect 31 0 16 0;
#X connect 31 0 25 0;
#X connect 31 0 15 0;
#X connect 32 0 33 0;
#X connect 33 0 47 0;
#X connect 34 0 47 5;
#X connect 35 0 34 0;
#X connect 36 0 47 6;
#X connect 37 0 36 0;
#X connect 38 0 47 7;
#X connect 39 0 38 0;
#X connect 40 0 36 1;
#X connect 40 0 37 0;
#X connect 41 0 34 1;
#X connect 41 0 35 0;
#X connect 42 0 38 1;
#X connect 42 0 39 0;
#X connect 43 0 41 0;
#X connect 44 0 40 0;
#X connect 45 0 42 0;
#X connect 48 0 43 0;
#X connect 48 0 44 0;
#X connect 48 0 45 0;
#X connect 49 0 52 0;
#X connect 50 0 51 0;
#X connect 51 0 49 0;
#X connect 52 0 47 8;
#X connect 53 0 16 0;
