#N canvas 117 138 1311 818 10;
#X obj 167 73 inlet;
#X obj 587 73 inlet;
#X obj 692 73 inlet;
#X obj 902 73 inlet;
#X obj 272 73 inlet;
#X obj 1007 73 inlet;
#X obj 797 73 inlet;
#X obj 1112 73 inlet;
#X obj 659 677 outlet~;
#X obj 377 73 inlet;
#X text 1108 58 volume;
#X text 281 59 x 5;
#X text 789 58 phaseBang 6;
#X text 689 57 bottom 2;
#X text 897 57 interval 3;
#X text 1001 59 bandwidth 4;
#X text 580 57 thinnerer 7;
#X msg 70 463 0;
#X msg 212 463 1;
#X msg 354 463 2;
#X msg 496 463 3;
#X msg 638 464 4;
#X msg 780 464 5;
#X msg 922 464 6;
#X msg 1064 464 7;
#X msg 1216 464 8;
#X obj 482 73 inlet;
#X text 175 58 y 1;
#X text 389 56 mu 8;
#X text 474 59 sigma 9;
#X obj 31 490 sweeperSep2;
#X obj 173 490 sweeperSep2;
#X obj 315 490 sweeperSep2;
#X obj 457 490 sweeperSep2;
#X obj 741 491 sweeperSep2;
#X obj 883 491 sweeperSep2;
#X obj 1025 491 sweeperSep2;
#X obj 1177 491 sweeperSep2;
#X obj 599 490 sweeperSep2;
#X obj 659 649 *~ 0.2;
#X obj 1112 95 * 0.2;
#X connect 0 0 30 0;
#X connect 0 0 31 0;
#X connect 0 0 32 0;
#X connect 0 0 33 0;
#X connect 0 0 34 0;
#X connect 0 0 35 0;
#X connect 0 0 36 0;
#X connect 0 0 37 0;
#X connect 0 0 38 0;
#X connect 1 0 30 8;
#X connect 1 0 31 8;
#X connect 1 0 32 8;
#X connect 1 0 33 8;
#X connect 1 0 34 8;
#X connect 1 0 35 8;
#X connect 1 0 36 8;
#X connect 1 0 37 8;
#X connect 1 0 38 8;
#X connect 2 0 30 1;
#X connect 2 0 31 1;
#X connect 2 0 32 1;
#X connect 2 0 33 1;
#X connect 2 0 34 1;
#X connect 2 0 35 1;
#X connect 2 0 36 1;
#X connect 2 0 37 1;
#X connect 2 0 38 1;
#X connect 3 0 30 2;
#X connect 3 0 31 2;
#X connect 3 0 32 2;
#X connect 3 0 33 2;
#X connect 3 0 34 2;
#X connect 3 0 35 2;
#X connect 3 0 36 2;
#X connect 3 0 37 2;
#X connect 3 0 38 2;
#X connect 4 0 30 4;
#X connect 4 0 31 4;
#X connect 4 0 32 4;
#X connect 4 0 33 4;
#X connect 4 0 34 4;
#X connect 4 0 35 4;
#X connect 4 0 36 4;
#X connect 4 0 37 4;
#X connect 4 0 38 4;
#X connect 5 0 30 3;
#X connect 5 0 31 3;
#X connect 5 0 32 3;
#X connect 5 0 33 3;
#X connect 5 0 34 3;
#X connect 5 0 35 3;
#X connect 5 0 36 3;
#X connect 5 0 37 3;
#X connect 5 0 38 3;
#X connect 6 0 20 0;
#X connect 6 0 21 0;
#X connect 6 0 22 0;
#X connect 6 0 23 0;
#X connect 6 0 24 0;
#X connect 6 0 25 0;
#X connect 6 0 19 0;
#X connect 6 0 18 0;
#X connect 6 0 17 0;
#X connect 7 0 40 0;
#X connect 9 0 30 6;
#X connect 9 0 31 6;
#X connect 9 0 32 6;
#X connect 9 0 33 6;
#X connect 9 0 34 6;
#X connect 9 0 35 6;
#X connect 9 0 36 6;
#X connect 9 0 37 6;
#X connect 9 0 38 6;
#X connect 17 0 30 5;
#X connect 18 0 31 5;
#X connect 19 0 32 5;
#X connect 20 0 33 5;
#X connect 21 0 38 5;
#X connect 22 0 34 5;
#X connect 23 0 35 5;
#X connect 24 0 36 5;
#X connect 25 0 37 5;
#X connect 26 0 30 7;
#X connect 26 0 31 7;
#X connect 26 0 32 7;
#X connect 26 0 33 7;
#X connect 26 0 34 7;
#X connect 26 0 35 7;
#X connect 26 0 36 7;
#X connect 26 0 37 7;
#X connect 26 0 38 7;
#X connect 30 0 39 0;
#X connect 31 0 39 0;
#X connect 32 0 39 0;
#X connect 33 0 39 0;
#X connect 34 0 39 0;
#X connect 35 0 39 0;
#X connect 36 0 39 0;
#X connect 37 0 39 0;
#X connect 38 0 39 0;
#X connect 39 0 8 0;
#X connect 40 0 39 1;
