#N canvas 1074 414 373 260 10;
#X obj 90 15 inlet;
#X obj 105 42 > 0;
#X obj 90 176 outlet;
#X floatatom 90 150 5 0 0 0 - - -;
#X obj 90 123 + 0.08;
#X obj 90 96 * -0.064;
#X obj 90 69 *;
#X connect 0 0 1 0;
#X connect 0 0 6 0;
#X connect 1 0 6 1;
#X connect 3 0 2 0;
#X connect 4 0 3 0;
#X connect 5 0 4 0;
#X connect 6 0 5 0;
