#N canvas 1 23 799 755 10;
#X obj 530 215 inlet;
#X obj 360 215 inlet;
#X obj 420 215 inlet;
#X obj 228 661 outlet~;
#X text 147 25 Creates a linear sine sweep from the lower (y) to the
upper frequency (z) with a cosine-envelope window. The sweep repeats
x times per second.;
#X obj 530 239 f \$1;
#X obj 420 239 f \$3;
#X obj 590 215 inlet;
#X obj 590 239 f \$4;
#X obj 360 239 f \$2;
#X obj 755 215 inlet;
#X obj 755 239 f \$5;
#X floatatom 755 263 5 0 0 0 - - -;
#X floatatom 420 263 5 0 0 0 - - -;
#X text 526 196 f_sweep;
#X text 349 196 f_bottom;
#X text 590 196 Phase;
#X text 737 196 Thinnerer;
#X floatatom 590 263 5 0 0 0 - - -;
#X floatatom 360 263 5 0 0 0 - - -;
#X floatatom 530 263 5 0 0 0 - - -;
#X obj 279 597 *~;
#X obj 530 536 pow~ 1;
#X obj 470 215 inlet;
#X text 409 196 interval;
#X obj 470 239 f \$6;
#X text 462 196 Bandwidth;
#X floatatom 470 263 5 0 0 0 - - -;
#X obj 375 435 pow~;
#X obj 360 462 *~;
#X obj 396 408 *~;
#X floatatom 279 263 5 0 0 0 - - -;
#X obj 279 215 inlet;
#X obj 279 239 f \$7;
#X obj 279 310 > 0;
#X obj 279 364 *;
#X obj 279 516 +~;
#X obj 279 391 pow 5;
#X obj 322 310 + 1;
#X text 135 442 Low-Pass Filter;
#X obj 228 633 *~;
#X obj 645 215 inlet;
#X obj 279 489 *~;
#X obj 645 239 f \$8;
#X floatatom 645 263 5 0 0 0 - - -;
#X obj 530 324 phasor~;
#X text 518 559 Amplitude;
#X obj 700 215 inlet;
#X obj 700 239 f \$9;
#X floatatom 700 263 5 0 0 0 - - -;
#X text 645 197 mu;
#X text 700 197 sig;
#X text 162 77 Inlets \; 1 FM-Steuerung 2 lower frequency \; 3 interval
\; 4 Bandwidth \; 5 sweeps per second \; 6 Phase from 0 to 11 \; 7
mu \; 8 sigma \; 9 Thinning-Factor \;;
#X obj 228 337 *;
#X obj 228 364 * 0.15;
#X obj 228 391 + 3;
#X obj 531 509 gauss;
#X obj 569 297 /;
#X obj 279 337 * 1.8;
#X obj 279 570 *~ 0.1;
#X obj 294 462 osc~ 30;
#X obj 279 543 osc~ 50;
#X connect 0 0 5 0;
#X connect 1 0 9 0;
#X connect 2 0 6 0;
#X connect 5 0 20 0;
#X connect 6 0 13 0;
#X connect 7 0 8 0;
#X connect 8 0 18 0;
#X connect 9 0 19 0;
#X connect 10 0 11 0;
#X connect 11 0 12 0;
#X connect 12 0 22 1;
#X connect 13 0 28 0;
#X connect 18 0 57 0;
#X connect 19 0 29 0;
#X connect 20 0 45 0;
#X connect 21 0 40 1;
#X connect 22 0 21 1;
#X connect 23 0 25 0;
#X connect 25 0 27 0;
#X connect 27 0 30 0;
#X connect 27 0 57 1;
#X connect 28 0 29 1;
#X connect 29 0 36 1;
#X connect 30 0 28 1;
#X connect 31 0 38 0;
#X connect 31 0 34 0;
#X connect 31 0 53 0;
#X connect 32 0 33 0;
#X connect 33 0 31 0;
#X connect 34 0 53 1;
#X connect 34 0 58 0;
#X connect 35 0 37 0;
#X connect 36 0 61 0;
#X connect 37 0 42 0;
#X connect 38 0 35 1;
#X connect 40 0 3 0;
#X connect 41 0 43 0;
#X connect 42 0 36 0;
#X connect 43 0 44 0;
#X connect 44 0 56 1;
#X connect 45 0 30 1;
#X connect 45 0 56 0;
#X connect 47 0 48 0;
#X connect 48 0 49 0;
#X connect 49 0 56 2;
#X connect 53 0 54 0;
#X connect 54 0 55 0;
#X connect 55 0 40 0;
#X connect 56 0 22 0;
#X connect 57 0 45 1;
#X connect 58 0 35 0;
#X connect 59 0 21 0;
#X connect 60 0 42 1;
#X connect 61 0 59 0;
